<?xml version="1.0" encoding="UTF-8" standalone="no"?>
<!DOCTYPE svg PUBLIC "-//W3C//DTD SVG 1.0//EN" "http://www.w3.org/TR/2001/REC-SVG-20010904/DTD/ svg10.dtd">
<svg
   xmlns:svg="http://www.w3.org/2000/svg"
   xmlns="http://www.w3.org/2000/svg"
   version="1.0"
   width="885.82678"
   height="1328.7377"
   id="svg11419">
  <defs
     id="defs11421">
    <clipPath
       id="clipPath11109">
      <path
         d="M 433.701,531.496 L 600.945,531.496 L 600.945,280.629 L 433.701,280.629 L 433.701,531.496 z"
         id="path11111" />
    </clipPath>
    <clipPath
       id="clipPath11091">
      <path
         d="M 221.102,531.496 L 388.346,531.496 L 388.346,280.629 L 221.102,280.629 L 221.102,531.496 z"
         id="path11093" />
    </clipPath>
  </defs>
  <g
     transform="translate(454.83271,4364.1321)"
     id="layer1">
    <path
       d="M -454.82741,-3035.3999 L 430.99406,-3035.3999 L 430.99406,-4005.8925 L -454.82741,-4005.8925 L -454.82741,-3035.3999 z"
       id="path11119"
       style="fill:#ffffff;fill-opacity:1;fill-rule:nonzero;stroke:none" />
    <path
       d="M 80.249139,-3035.3944 L 430.98877,-3035.3944 L 430.98877,-3448.7502 L 80.249139,-3448.7502 L 80.249139,-3035.3944 z"
       id="path11121"
       style="fill:#f08a00;fill-opacity:1;fill-rule:nonzero;stroke:none" />
    <path
       d="M -149.39475,-3962.4923 L -155.16802,-3962.4923 L -155.15213,-3962.5292 L -160.41693,-3962.5292 C -165.18915,-3949.2085 -170.42747,-3941.4276 -189.73351,-3938.3399 L -189.73351,-3927.0582 L -171.11073,-3927.0582 L -171.11073,-3883.139 C -171.11073,-3865.9408 -162.70505,-3862.0374 -147.23374,-3862.0374 C -141.88419,-3862.0374 -136.69354,-3862.5035 -131.344,-3863.2925 L -131.344,-3878.139 C -133.93932,-3877.9746 -136.08973,-3877.514 -138.52616,-3877.514 C -148.91805,-3877.514 -149.39475,-3881.8835 -149.39475,-3891.1207 L -149.39475,-3927.0739 L -128.29316,-3927.0739 L -128.29316,-3941.3217 L -149.39475,-3941.3217 L -149.39475,-3962.4923 z M -375.28865,-3962.4923 L -381.05133,-3962.4923 L -381.03544,-3962.5292 L -386.32672,-3962.5292 C -391.07246,-3949.2085 -396.32137,-3941.4276 -415.63801,-3938.3399 L -415.63801,-3927.0582 L -396.99404,-3927.0582 L -396.99404,-3883.139 C -396.99404,-3865.9408 -388.59366,-3862.0374 -373.14353,-3862.0374 C -367.78869,-3862.0374 -362.59274,-3862.5035 -357.2326,-3863.2925 L -357.2326,-3878.139 C -359.85441,-3877.9746 -361.98893,-3877.514 -364.43066,-3877.514 C -374.84374,-3877.514 -375.28865,-3881.8835 -375.28865,-3891.1207 L -375.28865,-3927.0739 L -354.19766,-3927.0739 L -354.19766,-3941.3217 L -375.28865,-3941.3217 L -375.28865,-3962.4923 z M -191.54494,-3887.0423 C -191.54494,-3902.0528 -203.62115,-3906.735 -215.56494,-3909.7172 C -218.44098,-3910.5011 -221.5077,-3911.1155 -224.26722,-3911.7511 C -227.02674,-3912.3812 -229.62736,-3913.1651 -231.92608,-3914.0973 C -236.34872,-3915.8189 -239.10824,-3918.1545 -239.10824,-3922.376 C -239.10824,-3928.626 -232.8265,-3931.1311 -227.47695,-3931.1311 C -219.98229,-3931.1311 -216.01515,-3925.9828 -215.70265,-3918.4778 L -193.82777,-3918.4778 C -194.90297,-3937.8577 -210.1942,-3943.9488 -227.17504,-3943.9488 C -241.86776,-3943.9488 -260.21512,-3938.8005 -260.21512,-3920.04 C -260.21512,-3905.3422 -248.58383,-3900.8029 -237.12202,-3897.8529 C -234.2142,-3897.0635 -231.45468,-3896.5923 -228.70046,-3895.8029 C -225.94624,-3895.1673 -223.50451,-3894.394 -221.3594,-3893.4618 C -217.07446,-3891.5762 -214.02363,-3889.0868 -214.02363,-3884.7012 C -214.02363,-3877.8263 -220.5861,-3874.2246 -226.71424,-3874.2246 C -235.88262,-3874.2246 -239.56904,-3879.2352 -239.86036,-3888.2978 L -262.34964,-3888.2978 C -262.34964,-3866.7141 -245.9885,-3861.0946 -227.78945,-3861.0946 C -211.27471,-3861.0946 -191.54494,-3866.5607 -191.54494,-3887.0423 M -293.32405,-3911.2744 L -326.98912,-3911.2744 C -326.98912,-3922.5349 -320.40547,-3930.665 -309.39918,-3930.665 C -298.68419,-3930.665 -293.32405,-3923.1387 -293.32405,-3911.2744 M -271.77756,-3898.144 C -271.77756,-3907.5244 -271.92056,-3915.5011 -275.14089,-3923.1387 C -281.08895,-3937.8577 -294.24566,-3944.1132 -309.24028,-3944.1132 C -335.702,-3944.1132 -349.14472,-3927.5455 -349.14472,-3901.2795 C -349.14472,-3875.7873 -334.93929,-3861.4018 -310.00299,-3861.4018 C -291.95753,-3861.4018 -275.28919,-3868.2818 -272.52967,-3888.7745 L -294.24566,-3888.7745 C -295.46917,-3879.5585 -300.67041,-3875.0085 -309.70108,-3875.0085 C -322.69359,-3875.0085 -327.59293,-3886.269 -327.41285,-3898.144 L -271.77756,-3898.144 z M -25.523594,-3903.3507 C -25.523594,-3891.9258 -29.601961,-3876.7301 -43.690868,-3876.7301 C -59.045658,-3876.7301 -62.334835,-3891.2902 -62.334835,-3903.8274 C -62.334835,-3915.4163 -59.045658,-3929.9819 -44.946158,-3929.9819 C -30.380559,-3929.9819 -25.523594,-3915.718 -25.523594,-3903.3507 M -4.7292148,-3863.5628 C -5.3542114,-3870.6178 -5.3542114,-3877.8157 -5.3542114,-3884.7068 L -5.3542114,-3971.3109 L -25.994989,-3971.3109 L -25.994989,-3932.487 C -32.726945,-3941.1048 -40.565885,-3944.3886 -51.524512,-3944.3886 C -75.957643,-3944.3886 -85.671573,-3922.7731 -85.671573,-3902.874 C -85.671573,-3880.9568 -74.86125,-3862.0001 -50.745915,-3862.0001 C -39.623094,-3862.0001 -33.19834,-3865.7607 -26.153887,-3874.0657 L -25.523594,-3863.5628 L -4.7292148,-3863.5628 z M -93.542293,-3883.6262 L -115.93675,-3883.6262 L -115.93675,-3863.5662 L -93.542293,-3863.5662 L -93.542293,-3883.6262 z M 64.322318,-3911.3007 L 30.667839,-3911.3007 C 30.667839,-3922.5612 37.2356,-3930.6917 48.247193,-3930.6917 C 58.967474,-3930.6917 64.322318,-3923.1756 64.322318,-3911.3007 M 85.874108,-3898.1757 C 85.874108,-3907.5507 85.731101,-3915.5329 82.510779,-3923.1756 C 76.557421,-3937.8738 63.400713,-3944.1395 48.411387,-3944.1395 C 21.949666,-3944.1395 8.4910526,-3927.5667 8.4910526,-3901.3062 C 8.4910526,-3875.8136 22.712374,-3861.4281 47.64868,-3861.4281 C 65.699429,-3861.4281 82.367771,-3868.3136 85.121994,-3888.8008 L 63.400713,-3888.8008 C 62.177203,-3879.5847 56.981256,-3875.0458 47.950585,-3875.0458 C 34.952774,-3875.0458 30.053436,-3886.3008 30.23352,-3898.1757 L 85.874108,-3898.1757 z M 430.98877,-4005.887 L 430.98877,-3557.6958 L 80.249139,-3557.6958 L 80.249139,-3817.2652 L 15.704997,-3817.2652 C -42.446172,-3658.1402 -106.43947,-3565.0369 -342.10557,-3528.3155 L -342.10557,-3448.7502 L -103.37805,-3448.7502 L -103.37805,-3035.3944 L -454.83271,-3035.3944 L -454.83271,-4005.887"
       id="path11123"
       style="fill:#f08a00;fill-opacity:1;fill-rule:nonzero;stroke:none" />
    <path
       d="M -454.82741,-4025.4369 L 430.99406,-4025.4369 L 430.99406,-4364.1321 L -454.82741,-4364.1321 L -454.82741,-4025.4369 z"
       id="path11125"
       style="fill:#646567;fill-opacity:1;fill-rule:nonzero;stroke:none" />
    <path
       d="M -101.10581,-4271.1398 L -101.10581,-4285.3876 L -122.2021,-4285.3876 L -122.2021,-4306.5795 L -133.22958,-4306.5795 C -138.78569,-4291.7435 -140.77191,-4286.1029 -162.54616,-4286.1029 L -176.68803,-4286.1029 L -176.68803,-4292.5117 C -176.68803,-4300.324 -175.75583,-4305.3189 -164.97729,-4305.3189 C -162.62561,-4305.3189 -160.13092,-4305.1706 -157.47733,-4305.0062 L -157.47733,-4320.0061 C -162.4773,-4320.4777 -167.63617,-4320.79 -172.47195,-4320.79 C -191.85214,-4320.79 -199.5057,-4310.6311 -199.5057,-4292.6651 L -199.5057,-4288.4491 C -203.63704,-4285.1283 -208.76413,-4282.7711 -214.81812,-4281.1559 L -214.81812,-4271.103 L -199.5057,-4271.103 L -199.5057,-4207.1889 L -176.68803,-4207.1889 L -176.68803,-4271.103 L -143.90749,-4271.103 L -143.90749,-4227.2049 C -143.90749,-4210.0067 -135.50181,-4206.1084 -120.05168,-4206.1084 C -114.69684,-4206.1084 -109.4956,-4206.5745 -104.14075,-4207.3584 L -104.14075,-4222.21 C -106.75726,-4222.046 -108.89708,-4221.5799 -111.33881,-4221.5799 C -121.75189,-4221.5799 -122.2021,-4225.9549 -122.2021,-4235.1921 L -122.2021,-4271.1398 L -101.10581,-4271.1398 z M -281.44382,-4306.5583 L -287.2012,-4306.5583 L -287.18002,-4306.5951 L -292.4713,-4306.5951 C -297.22763,-4293.2745 -302.46595,-4285.4936 -321.78788,-4282.4059 L -321.78788,-4271.1292 L -303.13862,-4271.1292 L -303.13862,-4227.2049 C -303.13862,-4210.0067 -294.73824,-4206.1084 -279.28811,-4206.1084 C -273.93327,-4206.1084 -268.73732,-4206.5745 -263.38248,-4207.3584 L -263.38248,-4222.21 C -265.99899,-4222.046 -268.13881,-4221.5799 -270.57523,-4221.5799 C -280.98831,-4221.5799 -281.44382,-4225.9549 -281.44382,-4235.1921 L -281.44382,-4271.1398 L -260.34224,-4271.1398 L -260.34224,-4285.3876 L -281.44382,-4285.3876 L -281.44382,-4306.5583 z M 152.36739,-4248.9209 C 152.36739,-4236.8765 148.31021,-4222.9782 133.93529,-4222.9782 C 119.86757,-4222.9782 115.95869,-4236.2565 115.95869,-4248.1315 C 115.95869,-4260.0013 120.18007,-4273.9152 134.39609,-4273.9152 C 147.83352,-4273.9152 152.36739,-4260.3191 152.36739,-4248.9209 M 175.33337,-4285.9385 L 153.31018,-4285.9385 L 153.31018,-4273.9152 C 147.05492,-4283.6029 138.31026,-4287.6707 127.05503,-4287.6707 C 103.77126,-4287.6707 92.20882,-4269.853 92.20882,-4248.1315 C 92.20882,-4226.4155 103.62295,-4208.7516 126.90143,-4208.7516 C 137.53167,-4208.7516 145.96912,-4212.9728 152.05489,-4221.8871 C 152.05489,-4218.1316 152.21379,-4214.5461 152.05489,-4210.9495 C 151.5835,-4198.9156 148.46381,-4189.689 133.61749,-4189.689 C 125.65673,-4189.689 118.15148,-4192.5068 117.99787,-4201.7228 L 96.430195,-4201.7228 L 96.430195,-4200.4783 C 96.430195,-4180.4785 117.37288,-4175.9446 133.46389,-4175.9446 C 162.83344,-4175.9446 174.87257,-4190.9496 174.87257,-4221.8871 L 174.87257,-4264.0585 C 174.87257,-4269.0691 175.18507,-4277.194 175.33337,-4285.9385 M 80.566934,-4207.1889 L 80.566934,-4258.1314 C 80.566934,-4276.8868 71.038383,-4287.1885 51.817089,-4287.1885 C 40.259948,-4287.1885 32.918886,-4282.9779 25.885026,-4273.9152 L 25.567231,-4285.9385 L 2.9137523,-4285.9385 C 3.385148,-4280.6313 3.5387489,-4275.4779 3.5387489,-4270.4725 L 3.5387489,-4207.1889 L 26.345829,-4207.1889 L 26.345829,-4246.8815 C 26.345829,-4255.7853 28.538614,-4271.8763 42.918832,-4271.8763 C 56.981256,-4271.8763 57.759854,-4259.8475 57.759854,-4248.9209 L 57.759854,-4207.1889 L 80.566934,-4207.1889 z M -12.319216,-4207.1889 C -12.801205,-4217.0405 -12.801205,-4226.5693 -12.801205,-4236.2565 L -12.801205,-4285.9385 L -35.618878,-4285.9385 L -35.618878,-4245.1603 C -35.618878,-4233.7621 -38.277762,-4221.0977 -52.50438,-4221.0977 C -66.715108,-4221.0977 -67.186504,-4233.1371 -67.186504,-4244.0692 L -67.186504,-4285.9385 L -89.993584,-4285.9385 L -89.993584,-4235.0065 C -89.993584,-4216.0978 -80.623931,-4205.9444 -61.243739,-4205.9444 C -49.686599,-4205.9444 -42.493841,-4210.1711 -35.459981,-4219.2282 L -35.152779,-4207.1889 L -12.319216,-4207.1889 z M -225.78734,-4286.1029 L -248.60446,-4286.1029 L -248.60446,-4207.1944 L -225.78734,-4207.1944 L -225.78734,-4286.1029 z M -225.32124,-4320.165 L -249.07111,-4320.165 L -249.07111,-4302.0312 L -225.32124,-4302.0312 L -225.32124,-4320.165 z M -321.80907,-4240.7904 C -321.80907,-4258.1314 -331.8196,-4264.3869 -346.50173,-4270.0064 C -350.55891,-4271.5636 -358.37666,-4273.9152 -365.71773,-4276.2563 C -373.06408,-4278.7563 -379.93905,-4281.2563 -382.44433,-4283.2851 C -384.93902,-4285.319 -386.19431,-4287.8241 -386.19431,-4291.0973 C -386.19431,-4301.1028 -377.13186,-4305.9384 -368.06411,-4305.9384 C -356.50167,-4305.9384 -350.55891,-4300.0062 -349.62671,-4289.694 L -325.09295,-4289.694 C -325.24655,-4314.6883 -344.16064,-4322.3527 -366.18912,-4322.3527 C -387.59261,-4322.3527 -411.03528,-4313.9099 -411.03528,-4288.7512 C -411.03528,-4267.9725 -393.05868,-4261.728 -376.34797,-4256.5742 C -369.9391,-4254.5458 -362.91054,-4253.1315 -356.81947,-4250.6315 C -351.5017,-4248.4442 -347.13202,-4245.1603 -347.13202,-4238.9103 C -347.13202,-4227.671 -358.37666,-4222.671 -368.37661,-4222.671 C -381.81404,-4222.671 -388.8373,-4229.8532 -389.1551,-4241.887 L -413.68886,-4241.887 C -413.21747,-4214.8533 -393.21758,-4205.1605 -368.84271,-4205.1605 C -346.65533,-4205.1605 -321.80907,-4215.0122 -321.80907,-4240.7904 M 333.9448,-4163.6777 L 328.17153,-4163.6777 L 328.19271,-4163.7095 L 322.92261,-4163.7095 C 318.15569,-4150.3939 312.91737,-4142.6079 293.61133,-4139.5198 L 293.61133,-4128.2381 L 312.22881,-4128.2381 L 312.22881,-4084.3243 C 312.22881,-4067.121 320.63449,-4063.2227 336.1111,-4063.2227 C 341.46065,-4063.2227 346.646,-4063.6833 351.99555,-4064.4778 L 351.99555,-4079.3243 C 349.40022,-4079.1654 347.25511,-4078.6938 344.81338,-4078.6938 C 334.42149,-4078.6938 333.9448,-4083.0637 333.9448,-4092.301 L 333.9448,-4128.2592 L 355.04638,-4128.2592 L 355.04638,-4142.502 L 333.9448,-4142.502 L 333.9448,-4163.6777 z M 108.05619,-4163.6777 L 102.29351,-4163.6777 L 102.3094,-4163.7095 L 97.023412,-4163.7095 C 92.272379,-4150.3939 87.028763,-4142.6079 67.706834,-4139.5198 L 67.706834,-4128.2381 L 86.350801,-4128.2381 L 86.350801,-4084.3243 C 86.350801,-4067.121 94.751179,-4063.2227 110.19601,-4063.2227 C 115.55615,-4063.2227 120.7521,-4063.6833 126.11224,-4064.4778 L 126.11224,-4079.3243 C 123.49043,-4079.1654 121.35591,-4078.6938 118.91418,-4078.6938 C 108.5011,-4078.6938 108.05619,-4083.0637 108.05619,-4092.301 L 108.05619,-4128.2592 L 129.14718,-4128.2592 L 129.14718,-4142.502 L 108.05619,-4142.502 L 108.05619,-4163.6777 z M 291.8052,-4088.2277 C 291.8052,-4103.2331 279.73429,-4107.9153 267.7852,-4110.9026 C 264.90386,-4111.6809 261.83714,-4112.3059 259.07762,-4112.9364 C 256.3234,-4113.5665 253.72278,-4114.3453 251.42406,-4115.2775 C 246.99612,-4117.0093 244.24189,-4119.3398 244.24189,-4123.5614 C 244.24189,-4129.8164 250.51834,-4132.3219 255.86789,-4132.3219 C 263.36255,-4132.3219 267.33499,-4127.1631 267.64749,-4119.6576 L 289.52237,-4119.6576 C 288.44716,-4139.038 273.15064,-4145.1342 256.1698,-4145.1342 C 241.47708,-4145.1342 223.13502,-4139.9808 223.13502,-4121.2203 C 223.13502,-4106.5276 234.76631,-4101.9882 246.22811,-4099.0327 C 249.13594,-4098.2437 251.89016,-4097.7776 254.64438,-4096.9882 C 257.4039,-4096.3526 259.84033,-4095.5793 261.99074,-4094.6471 C 266.27567,-4092.7616 269.3265,-4090.2777 269.3265,-4085.8815 C 269.3265,-4079.0065 262.75874,-4075.4155 256.6306,-4075.4155 C 247.46751,-4075.4155 243.7758,-4080.4154 243.48448,-4089.4832 L 220.9952,-4089.4832 C 220.9952,-4067.8943 237.35634,-4062.285 255.56069,-4062.285 C 272.07543,-4062.285 291.8052,-4067.7405 291.8052,-4088.2277 M 190.02079,-4112.4648 L 156.36101,-4112.4648 C 156.36101,-4123.7148 162.93937,-4131.8452 173.94567,-4131.8452 C 184.66595,-4131.8452 190.02079,-4124.3347 190.02079,-4112.4648 M 211.57258,-4099.3348 C 211.57258,-4108.7098 211.42957,-4116.6915 208.20395,-4124.3347 C 202.25589,-4139.038 189.10448,-4145.2931 174.10986,-4145.2931 C 147.64814,-4145.2931 134.20012,-4128.7253 134.20012,-4102.4649 C 134.20012,-4076.9777 148.41085,-4062.5816 173.34715,-4062.5816 C 191.3926,-4062.5816 208.06095,-4069.4672 210.81517,-4089.9599 L 189.10448,-4089.9599 C 187.87567,-4080.7383 182.67973,-4076.1938 173.64906,-4076.1938 C 160.65125,-4076.1938 155.75191,-4087.4544 155.93199,-4099.3348 L 211.57258,-4099.3348 z M -50.126215,-4112.1259 L -84.501029,-4112.1259 C -84.501029,-4123.3813 -77.779667,-4131.4957 -66.535024,-4131.4957 C -55.592287,-4131.4957 -50.126215,-4124.0008 -50.126215,-4112.1259 M -28.087139,-4099.0064 C -28.087139,-4108.3814 -28.251333,-4116.3474 -31.524621,-4124.0008 C -37.620986,-4138.6884 -51.058413,-4144.949 -66.37083,-4144.949 C -93.404582,-4144.949 -107.15451,-4128.3758 -107.15451,-4102.1365 C -107.15451,-4076.6599 -92.625985,-4062.285 -67.149428,-4062.285 C -48.727917,-4062.285 -31.688815,-4069.1549 -28.871033,-4089.626 L -51.058413,-4089.626 C -52.313703,-4080.4099 -57.620878,-4075.8866 -66.847523,-4075.8866 C -80.126052,-4075.8866 -85.126025,-4087.1315 -84.967128,-4099.0064 L -28.087139,-4099.0064 z M 60.763015,-4064.0117 L 60.763015,-4114.9386 C 60.763015,-4133.6935 51.234465,-4144.0007 32.023764,-4144.0007 C 20.450734,-4144.0007 13.109672,-4139.7846 6.0705149,-4130.7275 L 5.7686097,-4142.7507 L -16.916649,-4142.7507 C -16.429363,-4137.4435 -16.275762,-4132.2796 -16.275762,-4127.2847 L -16.275762,-4064.0117 L 6.5419106,-4064.0117 L 6.5419106,-4103.6886 C 6.5419106,-4112.5975 8.7346954,-4128.6885 23.104321,-4128.6885 C 37.172041,-4128.6885 37.955935,-4116.6597 37.955935,-4105.7225 L 37.955935,-4064.0117 L 60.763015,-4064.0117 z M -109.32081,-4123.2224 L -109.32081,-4143.0685 C -110.7297,-4143.2223 -111.82609,-4143.2223 -113.06549,-4143.2223 C -124.46903,-4143.2223 -132.28679,-4138.5401 -137.44036,-4128.2224 L -138.07065,-4142.7507 L -160.09384,-4142.7507 C -160.09384,-4136.1884 -159.47414,-4129.7902 -159.47414,-4123.5347 L -159.47414,-4064.0117 L -136.65647,-4064.0117 L -136.65647,-4101.1886 C -136.65647,-4115.2508 -130.88319,-4123.6885 -116.19577,-4123.6885 C -114.00828,-4123.6885 -111.82609,-4123.5347 -109.32081,-4123.2224 M -197.68898,-4100.7225 C -197.68898,-4088.8476 -200.34256,-4076.0405 -215.03528,-4076.0405 C -221.91024,-4076.0405 -227.84241,-4080.5688 -227.84241,-4087.751 C -227.84241,-4100.0975 -213.31389,-4102.2848 -203.62644,-4102.2848 C -201.43895,-4102.2848 -199.87646,-4102.1365 -197.68898,-4102.1365 L -197.68898,-4100.7225 z M -174.2516,-4064.0117 C -175.5016,-4073.2227 -175.5016,-4082.1315 -175.5016,-4091.0404 L -175.5016,-4114.4725 C -175.5016,-4140.2507 -188.62652,-4145.1024 -209.87641,-4145.1024 C -226.43352,-4145.1024 -244.71732,-4139.6312 -245.02982,-4120.2508 L -221.75664,-4120.2508 C -221.75664,-4127.5974 -218.31916,-4132.5974 -209.56391,-4132.5974 C -199.41036,-4132.5974 -197.68898,-4124.4724 -197.68898,-4116.183 L -197.68898,-4113.217 L -204.09254,-4113.217 C -222.38164,-4113.217 -250.34759,-4111.0348 -250.34759,-4086.501 C -250.34759,-4069.9333 -238.15486,-4062.4388 -222.85303,-4062.4388 C -211.7514,-4062.4388 -204.09254,-4065.41 -197.68898,-4074.785 C -197.53008,-4071.035 -197.06928,-4067.5922 -195.81399,-4064.0117 L -174.2516,-4064.0117 z M -243.45674,-4176.9772 L -267.51381,-4176.9772 L -288.92259,-4084.7904 L -313.29216,-4176.9772 L -342.9848,-4176.9772 L -367.97937,-4084.7904 L -389.85425,-4176.9772 L -415.63271,-4176.9772 L -384.07568,-4064.0117 L -354.54194,-4064.0117 L -328.91708,-4156.3523 L -303.76891,-4064.0117 L -274.22987,-4064.0117"
       id="path11127"
       style="fill:#ffffff;fill-opacity:1;fill-rule:nonzero;stroke:none" />
  </g>
</svg>
